<?xml version="1.0" encoding="utf-8"?>
<!-- Svg Vector Icons : http://www.onlinewebfonts.com/icon -->
<!DOCTYPE svg PUBLIC "-//W3C//DTD SVG 1.1//EN" "http://www.w3.org/Graphics/SVG/1.1/DTD/svg11.dtd">
<svg version="1.1" xmlns="http://www.w3.org/2000/svg" xmlns:xlink="http://www.w3.org/1999/xlink" x="0px" y="0px" viewBox="0 0 1000 1000" enable-background="new 0 0 1000 1000" xml:space="preserve">
<metadata> Svg Vector Icons : http://www.onlinewebfonts.com/icon </metadata>
<g><g><path d="M500,10C229.8,10,10,229.8,10,500s219.8,490,490,490c270.2,0,490-219.8,490-490S770.2,10,500,10z M885.6,524.1h23.3C896.4,738.8,717.8,909.7,500,909.7C274.1,909.7,90.3,725.9,90.3,500C90.3,274.1,274.1,90.3,500,90.3c223.2,0,405.2,179.5,409.5,401.6h-23.9c-8.9,0-16.1,7.2-16.1,16.1C869.5,516.9,876.7,524.1,885.6,524.1z"/><path d="M741,492h-48.2c-8.9,0-16.1,7.2-16.1,16.1c0,8.9,7.2,16.1,16.1,16.1H741c8.9,0,16.1-7.2,16.1-16.1C757,499.2,749.9,492,741,492z"/><path d="M644.6,492h-48.2c-8.9,0-16.1,7.2-16.1,16.1c0,8.9,7.2,16.1,16.1,16.1h48.2c8.9,0,16.1-7.2,16.1-16.1C660.7,499.2,653.5,492,644.6,492z"/><path d="M837.4,492h-48.2c-8.9,0-16.1,7.2-16.1,16.1c0,8.9,7.2,16.1,16.1,16.1h48.2c8.9,0,16.1-7.2,16.1-16.1C853.4,499.2,846.3,492,837.4,492z"/><path d="M548.2,492H500c-8.9,0-16.1,7.2-16.1,16.1c0,8.9,7.2,16.1,16.1,16.1h48.2c8.9,0,16.1-7.2,16.1-16.1C564.3,499.2,557.1,492,548.2,492z"/></g></g>
</svg>