<?xml version="1.0" encoding="UTF-8"?>
<svg width="24px" height="24px" viewBox="0 0 24 24" version="1.1" xmlns="http://www.w3.org/2000/svg" xmlns:xlink="http://www.w3.org/1999/xlink">
    <!-- Generator: Sketch 55 (78076) - https://sketchapp.com -->
    <title>user (1)</title>
    <desc>Created with Sketch.</desc>
    <g id="Page-1" stroke="none" stroke-width="1" fill="none" fill-rule="evenodd">
        <g id="Detail-Page-V1-Copy-2" transform="translate(-1228.000000, -16.000000)" fill="#FFFFFF" fill-rule="nonzero" stroke="#FFFFFF" stroke-width="0.4">
            <g id="user-(1)" transform="translate(1229.000000, 17.000000)">
                <path d="M22,11 C22,4.9348 17.0652,0 11,0 C4.9348,0 0,4.9348 0,11 C0,14.2036 1.3776,17.0912 3.5704,19.1032 L3.56,19.1124 L3.9168,19.4132 C3.94,19.4328 3.9652,19.4488 3.9884,19.468 C4.178,19.6252 4.3744,19.7744 4.5744,19.9188 C4.6392,19.9656 4.704,20.0124 4.77,20.058 C4.9836,20.2052 5.2028,20.3448 5.4268,20.4772 C5.4756,20.506 5.5248,20.534 5.574,20.562 C5.8192,20.7016 6.0696,20.8332 6.326,20.954 C6.3448,20.9628 6.364,20.9708 6.3828,20.9796 C7.2184,21.368 8.1104,21.6532 9.0432,21.8216 C9.0676,21.826 9.092,21.8304 9.1168,21.8348 C9.4064,21.8848 9.6992,21.9248 9.9956,21.9516 C10.0316,21.9548 10.0676,21.9568 10.104,21.96 C10.3992,21.9844 10.6976,22 11,22 C11.2996,22 11.5952,21.9844 11.8888,21.9608 C11.926,21.9576 11.9632,21.9556 12.0004,21.9524 C12.2944,21.9256 12.5848,21.8868 12.8716,21.8376 C12.8964,21.8332 12.9216,21.8288 12.9464,21.824 C13.8652,21.6592 14.7444,21.3804 15.5692,21.002 C15.5996,20.988 15.6304,20.9748 15.6608,20.9604 C15.9076,20.8444 16.1488,20.7192 16.3852,20.586 C16.444,20.5528 16.5024,20.5192 16.5608,20.4848 C16.776,20.358 16.9876,20.2256 17.1932,20.0848 C17.2672,20.0344 17.3396,19.9812 17.4128,19.9284 C17.5884,19.802 17.7608,19.6716 17.9284,19.5352 C17.9656,19.5052 18.0056,19.4792 18.042,19.4484 L18.408,19.1428 L18.3972,19.1336 C20.6092,17.1208 22,14.22 22,11 Z M0.8,11 C0.8,5.3756 5.3756,0.8 11,0.8 C16.6244,0.8 21.2,5.3756 21.2,11 C21.2,14.0308 19.87,16.7556 17.7644,18.6252 C17.6468,18.544 17.5284,18.4712 17.4072,18.4104 L14.0204,16.7172 C13.7164,16.5652 13.5276,16.2596 13.5276,15.92 L13.5276,14.7372 C13.606,14.6404 13.6888,14.5308 13.7744,14.4104 C14.2128,13.7912 14.5644,13.1024 14.8208,12.3612 C15.3276,12.1204 15.6548,11.6156 15.6548,11.0456 L15.6548,9.6276 C15.6548,9.2808 15.5276,8.9444 15.3,8.68 L15.3,6.8132 C15.3208,6.6056 15.3944,5.434 14.5468,4.4676 C13.8096,3.626 12.6164,3.2 11,3.2 C9.3836,3.2 8.1904,3.626 7.4532,4.4672 C6.6056,5.4336 6.6792,6.6052 6.7,6.8128 L6.7,8.6796 C6.4728,8.944 6.3452,9.2804 6.3452,9.6272 L6.3452,11.0452 C6.3452,11.4856 6.5428,11.8964 6.8812,12.1736 C7.2052,13.4428 7.872,14.4036 8.1184,14.7292 L8.1184,15.8868 C8.1184,16.2132 7.9404,16.5132 7.6536,16.67 L4.4908,18.3952 C4.39,18.45 4.29,18.514 4.19,18.5856 C2.1104,16.7168 0.8,14.0088 0.8,11 Z M16.9836,19.2528 C16.8436,19.3544 16.7012,19.4528 16.5568,19.5468 C16.4904,19.59 16.4244,19.6332 16.3568,19.6752 C16.168,19.792 15.976,19.9032 15.78,20.0072 C15.7368,20.03 15.6932,20.0516 15.6496,20.074 C15.1992,20.3048 14.7332,20.5032 14.2544,20.6644 C14.2376,20.67 14.2208,20.676 14.2036,20.6816 C13.9528,20.7648 13.6988,20.8388 13.442,20.9024 C13.4412,20.9024 13.4404,20.9028 13.4396,20.9028 C13.1804,20.9668 12.918,21.02 12.654,21.0636 C12.6468,21.0648 12.6396,21.0664 12.6324,21.0676 C12.384,21.108 12.1336,21.1372 11.8824,21.1592 C11.838,21.1632 11.7936,21.166 11.7488,21.1692 C11.5004,21.188 11.2508,21.2 11,21.2 C10.7464,21.2 10.4936,21.1876 10.242,21.1688 C10.1984,21.1656 10.1548,21.1628 10.1116,21.1588 C9.858,21.1364 9.6056,21.1064 9.3556,21.0656 C9.3444,21.0636 9.3332,21.0616 9.322,21.0596 C8.7932,20.9712 8.2728,20.8412 7.766,20.6712 C7.7504,20.666 7.7344,20.6604 7.7188,20.6552 C7.4672,20.5696 7.2184,20.4748 6.974,20.37 C6.9724,20.3692 6.9704,20.3684 6.9688,20.3676 C6.7376,20.268 6.5108,20.1576 6.2868,20.0412 C6.2576,20.026 6.228,20.0116 6.1992,19.996 C5.9948,19.8868 5.7948,19.7688 5.5976,19.6456 C5.5392,19.6088 5.4812,19.5716 5.4236,19.534 C5.242,19.4152 5.0628,19.2916 4.8884,19.1608 C4.8704,19.1472 4.8532,19.1328 4.8352,19.1192 C4.848,19.112 4.8608,19.1048 4.8736,19.0976 L8.0364,17.3724 C8.5804,17.0756 8.9184,16.5064 8.9184,15.8868 L8.918,14.446 L8.826,14.3348 C8.8172,14.3248 7.9524,13.2728 7.6256,11.8484 L7.5892,11.69 L7.4528,11.6016 C7.2604,11.4772 7.1452,11.2692 7.1452,11.0448 L7.1452,9.6268 C7.1452,9.4408 7.224,9.2676 7.368,9.1376 L7.5,9.0184 L7.5,6.7904 L7.4964,6.738 C7.4952,6.7284 7.3772,5.7664 8.0548,4.994 C8.6332,4.3348 9.6244,4 11,4 C12.3704,4 13.3584,4.332 13.9384,4.9864 C14.6152,5.7508 14.5044,6.7308 14.5036,6.7388 L14.5,9.0192 L14.632,9.1384 C14.7756,9.268 14.8548,9.4416 14.8548,9.6276 L14.8548,11.0456 C14.8548,11.3308 14.6608,11.5896 14.3824,11.6756 L14.1836,11.7368 L14.1196,11.9348 C13.8836,12.668 13.5476,13.3452 13.1212,13.9476 C13.0164,14.0956 12.9144,14.2268 12.8268,14.3272 L12.7276,14.4404 L12.7276,15.92 C12.7276,16.5648 13.086,17.1448 13.6628,17.4328 L17.0496,19.126 C17.0712,19.1368 17.0924,19.148 17.1136,19.1592 C17.0708,19.1916 17.0268,19.2216 16.9836,19.2528 Z" id="Shape"></path>
            </g>
        </g>
    </g>
</svg>